<?xml version="1.0" encoding="UTF-8" standalone="no"?>
<svg
   viewBox="0 0 23.432 23.432004"
   version="1.1"
   id="svg1"
   width="23.431999"
   height="23.432003"
   xmlns="http://www.w3.org/2000/svg"
   xmlns:svg="http://www.w3.org/2000/svg">
  <defs
     id="defs1" />
  <path
     id="path1"
     d="m 11.521186,1.2652118 c -0.953032,1.5597622 -1.9887227,3.0593334 -3.1074219,4.5 C 6.9492658,4.7472091 5.4856846,3.73048 4.021186,2.7124774 3.8826091,2.6599699 3.7386696,2.6409982 3.5914985,2.6577899 2.7648268,6.7209491 1.8730613,10.757747 0.91376407,14.767166 v 0.75 C 2.5235513,16.614098 4.1377159,17.705291 5.755561,18.790602 v 0.08008 h 0.1171875 c 1.806633,1.211497 3.6188658,2.414261 5.4355465,3.611328 0.07144,0.07147 0.141451,0.143364 0.212891,0.214844 h 0.429688 c 3.432812,-2.431526 6.897745,-4.82478 10.394531,-7.179687 V 14.552322 C 21.353335,10.612329 20.406547,6.6475029 19.505561,2.6577899 19.428622,2.5559259 19.339676,2.5389175 19.237983,2.6050555 17.781756,3.6886059 16.285878,4.7044242 14.749702,5.6519305 a 3.4715793,3.1345327 0 0 0 -0.01758,-0.00195 C 13.814121,4.1611929 12.850923,2.699941 11.843452,1.2652118 Z M 3.6598579,9.7573993 h 2.40625 c 0.474374,0 0.8576155,0.062364 1.1484375,0.1875 0.293206,0.1251367 0.5358592,0.3050117 0.7265625,0.5390627 0.1907027,0.23405 0.3282458,0.505883 0.4140625,0.816407 0.085817,0.310522 0.1289063,0.640682 0.1289063,0.988281 -10e-8,0.544574 -0.064635,0.966325 -0.1933594,1.267578 -0.1263407,0.298936 -0.3028369,0.551934 -0.5292969,0.755859 -0.22646,0.201609 -0.468683,0.335142 -0.7285156,0.402344 -0.3551847,0.09269 -0.6783582,0.138672 -0.9667969,0.138672 h -2.40625 z m 5.671875,0 H 13.671577 V 10.84529 H 10.95478 v 0.810547 h 2.521484 V 12.6949 H 10.95478 v 1.003906 h 2.796875 v 1.154297 H 9.3317329 Z m 4.7734381,0 h 1.695312 l 1.179688,3.6679687 1.162109,-3.6679687 h 1.644531 l -1.945312,5.0957037 h -1.75586 z M 5.2809517,10.911696 v 2.785157 H 5.677436 c 0.338498,0 0.5796289,-0.03754 0.7226563,-0.109375 0.1430273,-0.07416 0.2548888,-0.200107 0.3359375,-0.380859 0.081049,-0.18307 0.1210937,-0.478868 0.1210937,-0.886719 0,-0.539938 -0.090316,-0.910084 -0.2714844,-1.109376 C 6.4044718,11.011233 6.1047959,10.911696 5.6852485,10.911696 Z" />
</svg>
