<?xml version="1.0" encoding="UTF-8" standalone="no"?>
<svg
   viewBox="0 0 23.432 23.432004"
   version="1.1"
   id="svg1"
   width="23.431999"
   height="23.432003"
   xmlns="http://www.w3.org/2000/svg"
   xmlns:svg="http://www.w3.org/2000/svg">
  <defs
     id="defs1" />
  <path
     id="path1"
     d="m 11.521484,1.265625 c -0.953032,1.5597622 -1.9887223,3.0593334 -3.1074215,4.5 C 6.9495642,4.7476223 5.485983,3.7308932 4.0214844,2.7128906 3.8829075,2.6603831 3.738968,2.6414114 3.5917969,2.6582031 2.7651252,6.7213623 1.8733597,10.758159 0.9140625,14.767578 v 0.75 c 1.6097872,1.096932 3.2239518,2.188127 4.8417969,3.273438 v 0.08008 h 0.1171875 c 1.806633,1.211497 3.6188659,2.414261 5.4355471,3.611328 0.07144,0.07147 0.14145,0.143364 0.21289,0.214844 h 0.429688 c 3.432812,-2.431526 6.897745,-4.824781 10.394531,-7.179688 V 14.552734 C 21.353633,10.612741 20.406845,6.6479161 19.505859,2.6582031 19.42892,2.5563391 19.339974,2.5393307 19.238281,2.6054688 17.782054,3.6890192 16.286176,4.7048374 14.75,5.6523438 a 3.4715793,3.1345327 0 0 0 -0.01758,-0.00195 C 13.814421,4.161603 12.851221,2.7003542 11.84375,1.265625 Z m 0.01758,1.0429688 h 0.306641 c 0.957974,1.325082 1.873198,2.6738248 2.746094,4.0488281 a 3.3010226,2.8949807 0 0 1 0.01758,0.00195 c 1.460703,-0.8750946 2.882894,-1.8137115 4.267578,-2.8144531 0.0967,-0.061084 0.180746,-0.045251 0.253906,0.048828 0.85672,3.684805 1.757839,7.3474442 2.701172,10.9863282 V 15.4707 c -3.324989,2.174939 -6.620605,4.385158 -9.884765,6.630859 H 11.539062 C 11.471132,22.035546 11.403868,21.968364 11.335938,21.902344 9.6085086,20.796762 7.8858425,19.687269 6.1679688,18.568359 H 6.0566406 v -0.07422 C 4.5182801,17.491773 2.9838261,16.483804 1.453125,15.470703 V 14.777344 C 2.3652938,11.07434 3.2119887,7.3463878 3.9980469,3.59375 4.1379874,3.578242 4.276436,3.5960368 4.4082031,3.6445312 5.8007519,4.5847343 7.1914369,5.5246404 8.5839844,6.4648438 9.6477243,5.1342778 10.632853,3.7491533 11.539062,2.3085938 Z" />
  <path
     style="font-size:6.61399px;font-family:Arial;-inkscape-font-specification:Arial;stroke-width:0.551165"
     d="M 5.1694975,14.978558 V 10.343446 H 3.7642506 V 9.7232803 H 7.1449895 V 10.343446 H 5.7339237 v 4.635112 z m 1.6438188,0 1.638,-5.2552777 H 9.059384 l 1.745648,5.2552777 H 10.162051 L 9.6645418,13.386918 H 7.8810712 l -0.4684156,1.59164 z M 8.0439984,12.820524 H 9.4899771 L 9.0448364,11.365107 Q 8.8411778,10.701923 8.7422577,10.275335 8.6607942,10.780788 8.512414,11.279072 Z M 11.084336,12.41903 q 0,-1.308443 0.570245,-2.046906 0.570245,-0.7420478 1.472163,-0.7420478 0.590612,0 1.064846,0.347723 0.474234,0.3477228 0.721534,0.9714738 0.25021,0.620165 0.25021,1.408815 0,0.799404 -0.261847,1.430325 -0.261848,0.63092 -0.741901,0.957134 -0.480053,0.32263 -1.035751,0.32263 -0.602249,0 -1.076483,-0.358478 -0.474235,-0.358477 -0.718625,-0.978643 -0.244391,-0.620165 -0.244391,-1.312026 z m 0.581882,0.01077 q 0,0.949964 0.413137,1.498435 0.416046,0.544886 1.041571,0.544886 0.637161,0 1.047388,-0.552055 0.413137,-0.552055 0.413137,-1.566546 0,-0.641674 -0.177474,-1.118449 -0.174565,-0.48036 -0.514967,-0.742048 -0.337491,-0.265273 -0.759357,-0.265273 -0.599338,0 -1.032842,0.509037 -0.430593,0.505453 -0.430593,1.692013 z m 4.218651,2.548774 V 9.7232803 h 0.578973 l 2.240249,4.1260737 V 9.7232803 h 0.54115 v 5.2552777 h -0.578973 l -2.240249,-4.129659 v 4.129659 z"
     id="text1"
     aria-label="TAON" />
</svg>
