<?xml version="1.0" encoding="UTF-8" standalone="no"?>
<svg
   viewBox="0 0 23.432 23.432004"
   version="1.1"
   id="svg1"
   width="23.431999"
   height="23.432003"
   xmlns="http://www.w3.org/2000/svg"
   xmlns:svg="http://www.w3.org/2000/svg">
  <defs
     id="defs1" />
  <path
     id="path1"
     d="m 11.521484,1.265625 c -0.953032,1.5597622 -1.9887223,3.0593334 -3.1074215,4.5 C 6.9495642,4.7476223 5.485983,3.7308932 4.0214844,2.7128906 3.8829075,2.6603831 3.738968,2.6414114 3.5917969,2.6582031 2.7651252,6.7213623 1.8733597,10.758159 0.9140625,14.767578 v 0.75 c 1.6097872,1.096932 3.2239518,2.188127 4.8417969,3.273438 v 0.08008 h 0.1171875 c 1.806633,1.211497 3.6188659,2.414261 5.4355471,3.611328 0.07144,0.07147 0.14145,0.143364 0.21289,0.214844 h 0.429688 c 3.432812,-2.431526 6.897745,-4.824781 10.394531,-7.179688 V 14.552734 C 21.353633,10.612741 20.406845,6.6479161 19.505859,2.6582031 19.42892,2.5563391 19.339974,2.5393307 19.238281,2.6054688 17.782054,3.6890192 16.286176,4.7048374 14.75,5.6523438 a 3.4715793,3.1345327 0 0 0 -0.01758,-0.00195 C 13.814421,4.161603 12.851221,2.7003542 11.84375,1.265625 Z M 4.1855469,8.9433594 H 10.810547 V 10.048828 H 8.34375 V 15.46875 H 6.6601562 V 10.048828 H 4.1855469 Z m 7.7285151,0 h 1.638672 l 3.41211,4.3574216 V 8.9433594 h 1.564453 V 15.46875 h -1.689453 l -3.361328,-4.253906 v 4.253906 h -1.564454 z" />
</svg>
